<svg width="40" height="40" xmlns="http://www.w3.org/2000/svg">
 <g id="Layer_1">
  <title>Layer 1</title>
  <ellipse ry="2.07317" rx="2.07317" id="svg_1" cy="2.15975" cx="2.07317" fill="rgba(98, 125, 225)"/>
  <ellipse ry="2.07317" rx="2.07317" id="svg_30" cy="2.07317" cx="37.92683" fill="rgba(98, 125, 225)"/>
  <ellipse ry="2.07317" rx="2.07317" id="svg_31" cy="37.92683" cx="38.00495" fill="rgba(98, 125, 225)"/>
  <ellipse ry="2.07317" rx="2.07317" id="svg_32" cy="37.92683" cx="2.07317" fill="rgba(98, 125, 225)"/>
  <ellipse ry="2.07317" rx="2.07317" id="svg_33" cy="37.92683" cx="20" fill="rgba(98, 125, 225)"/>
  <ellipse ry="2.07317" rx="2.07317" id="svg_34" cy="20" cx="20" fill="rgba(98, 125, 225)"/>
  <ellipse ry="2.07317" rx="2.07317" id="svg_35" cy="2.07317" cx="20.08658" fill="rgba(98, 125, 225)"/>
  <ellipse ry="2.07317" rx="2.07317" id="svg_36" cy="20" cx="37.92683" fill="rgba(98, 125, 225)"/>
  <ellipse ry="2.07317" rx="2.07317" id="svg_37" cy="20" cx="2.07317" fill="rgba(98, 125, 225)"/>
  <ellipse ry="2.07317" rx="2.07317" id="svg_40" cy="10.91342" cx="20" fill="rgba(98, 125, 225)"/>
  <ellipse ry="2.07317" rx="2.07317" id="svg_41" cy="10.91342" cx="2.07317" fill="rgba(98, 125, 225)"/>
  <ellipse ry="2.07317" rx="2.07317" id="svg_42" cy="10.91342" cx="37.92683" fill="rgba(98, 125, 225)"/>
  <ellipse ry="2.07317" rx="2.07317" id="svg_44" cy="1.99505" cx="11" fill="rgba(98, 125, 225)"/>
  <ellipse ry="2.07317" rx="2.07317" id="svg_46" cy="10.91342" cx="11" fill="rgba(98, 125, 225)"/>
  <ellipse ry="2.07317" rx="2.07317" id="svg_47" cy="20" cx="11" fill="rgba(98, 125, 225)"/>
  <ellipse ry="2.07317" rx="2.07317" id="svg_48" cy="1.99505" cx="11.07812" fill="rgba(98, 125, 225)"/>
  <ellipse ry="2.07317" rx="2.07317" id="svg_49" cy="10.8353" cx="11" fill="rgba(98, 125, 225)"/>
  <ellipse ry="2.07317" rx="2.07317" id="svg_50" cy="37.92683" cx="11.07812" fill="rgba(98, 125, 225)"/>
  <ellipse ry="2.07317" rx="2.07317" id="svg_51" cy="29" cx="2.07317" fill="rgba(98, 125, 225)"/>
  <ellipse ry="2.07317" rx="2.07317" id="svg_52" cy="29" cx="37.92683" fill="rgba(98, 125, 225)"/>
  <ellipse ry="2.07317" rx="2.07317" id="svg_53" cy="29" cx="11" fill="rgba(98, 125, 225)"/>
  <ellipse ry="2.07317" rx="2.07317" id="svg_54" cy="2.07317" cx="29" fill="rgba(98, 125, 225)"/>
  <ellipse ry="2.07317" rx="2.07317" id="svg_55" cy="37.92683" cx="29" fill="rgba(98, 125, 225)"/>
  <ellipse ry="2.07317" rx="2.07317" id="svg_56" cy="29" cx="20" fill="rgba(98, 125, 225)"/>
  <ellipse ry="2.07317" rx="2.07317" id="svg_57" cy="29" cx="29" fill="rgba(98, 125, 225)"/>
  <ellipse ry="2.07317" rx="2.07317" id="svg_58" cy="29" cx="29" fill="rgba(98, 125, 225)"/>
  <ellipse ry="2.07317" rx="2.07317" id="svg_59" cy="20" cx="29" fill="rgba(98, 125, 225)"/>
  <ellipse ry="2.07317" rx="2.07317" id="svg_60" cy="10.91342" cx="29" fill="rgba(98, 125, 225)"/>
 </g>
</svg>